<?xml version="1.0" standalone="no"?>
<!DOCTYPE svg PUBLIC "-//W3C//DTD SVG 20010904//EN"
 "http://www.w3.org/TR/2001/REC-SVG-20010904/DTD/svg10.dtd">
<svg version="1.0" xmlns="http://www.w3.org/2000/svg"
 width="700.000000pt" height="700.000000pt" viewBox="0 0 700.000000 700.000000"
 preserveAspectRatio="xMidYMid meet">
<metadata>
Created by potrace 1.14, written by Peter Selinger 2001-2017
</metadata>
<g transform="translate(0.000000,700.000000) scale(0.100000,-0.100000)"
fill="#000000" stroke="none">
<path d="M2599 6200 c-24 -9 -59 -24 -76 -33 -18 -10 -36 -18 -40 -18 -5 -1
-19 -6 -33 -12 -14 -6 -27 -11 -30 -11 -3 -1 -22 -9 -42 -19 -21 -9 -53 -23
-70 -31 -18 -8 -62 -27 -98 -43 -36 -15 -67 -28 -70 -28 -3 -1 -25 -10 -50
-22 -45 -20 -81 -35 -90 -38 -3 0 -20 -9 -37 -18 -18 -10 -36 -18 -40 -18 -5
-1 -19 -6 -33 -12 -14 -6 -27 -11 -30 -12 -3 0 -20 -9 -37 -18 -18 -10 -35
-18 -38 -18 -6 0 -69 -25 -120 -49 -34 -15 -67 -29 -85 -35 -3 -1 -23 -10 -45
-20 -48 -21 -88 -38 -95 -40 -3 0 -20 -9 -37 -18 -18 -10 -35 -18 -38 -18 -6
0 -55 -20 -132 -54 -30 -14 -62 -25 -69 -25 -8 0 -14 -4 -14 -9 0 -5 -12 -12
-27 -16 -26 -6 -149 -60 -202 -87 -13 -7 -33 -25 -45 -41 l-20 -27 -1 -2257
c0 -2107 1 -2258 17 -2284 47 -77 108 -80 253 -14 61 28 220 97 230 99 6 2 37
15 70 30 33 15 65 29 70 30 18 5 90 36 117 52 15 8 30 15 33 14 3 0 19 7 35
15 17 9 30 13 30 9 0 -3 15 3 33 14 17 12 34 20 37 20 3 -1 23 8 45 19 22 12
42 21 45 21 6 1 52 18 90 35 14 5 28 10 33 9 4 -1 7 3 7 8 0 5 3 9 8 8 4 -1
30 8 57 21 28 13 55 24 60 25 6 2 28 11 50 21 22 9 58 25 80 35 45 19 77 33
85 35 3 0 23 10 45 22 22 11 42 21 45 21 11 1 49 16 110 44 36 17 70 31 75 33
6 1 17 5 25 8 23 8 50 5 50 -6 0 -6 3 -8 6 -4 3 3 23 -3 42 -14 20 -10 40 -19
43 -19 4 0 31 -11 60 -24 30 -13 57 -24 62 -24 4 -1 20 -8 35 -17 34 -19 85
-39 95 -37 4 1 7 -3 7 -8 0 -5 3 -9 8 -8 7 1 27 -6 97 -37 22 -10 42 -19 45
-19 7 -2 82 -36 102 -46 10 -6 22 -10 27 -10 9 0 70 -26 176 -76 31 -14 74
-31 87 -33 4 -1 29 -13 54 -26 26 -14 50 -25 54 -25 4 0 29 -10 56 -22 27 -12
52 -21 57 -20 4 1 7 -3 7 -9 0 -5 4 -8 9 -5 4 3 17 -1 27 -9 10 -8 24 -15 30
-15 6 0 40 -13 75 -29 35 -16 67 -29 72 -30 4 0 20 -6 35 -14 63 -32 105 -52
106 -49 1 2 33 -11 71 -28 39 -18 86 -32 105 -32 20 1 79 19 130 42 52 23 100
43 105 44 6 2 28 11 50 21 22 11 42 19 45 20 14 4 51 20 110 47 36 17 70 31
75 33 14 3 47 17 138 58 42 20 80 36 82 36 3 1 20 7 38 15 197 85 228 98 237
101 3 0 20 9 37 18 18 10 35 18 38 18 6 0 67 26 145 61 36 16 67 29 70 30 3 0
16 5 30 11 14 6 27 11 30 12 3 1 25 11 50 22 132 60 296 127 302 125 4 -1 26
15 48 37 30 29 40 46 41 72 1 19 2 1037 3 2263 1 2056 0 2231 -16 2256 -36 60
-104 80 -173 50 -16 -7 -32 -14 -35 -15 -3 0 -20 -9 -37 -18 -18 -10 -36 -18
-40 -19 -10 -1 -45 -16 -163 -68 -52 -23 -99 -43 -105 -44 -5 -2 -23 -9 -40
-16 -16 -7 -33 -13 -37 -12 -5 1 -8 -2 -8 -8 0 -6 -3 -9 -7 -8 -5 0 -24 -6
-43 -14 -43 -18 -73 -31 -80 -33 -3 0 -20 -9 -37 -18 -18 -10 -33 -15 -33 -11
0 3 -17 -5 -37 -18 -21 -12 -39 -22 -41 -20 -1 1 -16 -5 -32 -13 -16 -8 -32
-16 -35 -16 -6 0 -69 -25 -120 -49 -37 -16 -72 -31 -85 -35 -3 -1 -32 -14 -65
-29 -33 -15 -64 -29 -70 -30 -5 -1 -25 -10 -42 -19 -18 -10 -36 -18 -40 -18
-5 -1 -19 -6 -33 -11 -14 -5 -26 -9 -28 -8 -1 0 -15 -6 -30 -14 -33 -19 -163
-78 -177 -80 -5 -1 -32 -12 -58 -25 -42 -19 -53 -21 -85 -10 -20 6 -47 18 -59
25 -13 8 -23 12 -23 9 0 -4 -12 1 -27 9 -16 8 -46 22 -68 31 -22 9 -55 24 -73
33 -19 9 -39 17 -45 18 -7 1 -39 14 -72 30 -33 15 -64 29 -70 30 -9 2 -149 62
-235 101 -19 8 -51 22 -70 30 -19 8 -50 21 -68 29 -17 7 -33 13 -35 12 -1 -1
-15 5 -32 14 -34 19 -108 51 -115 51 -3 0 -32 13 -65 28 -73 33 -127 55 -138
57 -4 1 -21 9 -37 17 -16 8 -33 16 -37 16 -5 0 -23 9 -40 21 -18 11 -33 17
-33 14 0 -4 -13 0 -30 9 -16 8 -31 14 -32 13 -2 -1 -16 5 -33 15 -52 29 -179
79 -206 81 -14 1 -45 -5 -70 -14z"/>
</g>
</svg>
